<?xml version="1.0" encoding="UTF-8" standalone="no"?>
<svg width="23px" height="38px" viewBox="0 0 23 38" version="1.1" xmlns="http://www.w3.org/2000/svg" xmlns:xlink="http://www.w3.org/1999/xlink" xmlns:sketch="http://www.bohemiancoding.com/sketch/ns">
    <!-- Generator: Sketch 3.3 (11970) - http://www.bohemiancoding.com/sketch -->
    <title>Rectangle 876</title>
    <desc>Created with Sketch.</desc>
    <defs></defs>
    <g id="Main-full-menu+hovers" stroke="none" stroke-width="1" fill="none" fill-rule="evenodd" sketch:type="MSPage">
        <g sketch:type="MSArtboardGroup" transform="translate(-935.000000, -3140.000000)" id="Mask-+-Bitmap-Copy" fill="#FFFFFF">
            <g sketch:type="MSLayerGroup" transform="translate(-512.500000, 2908.283732)">
                <g id="Rectangle-876-+-Group-+-Group" transform="translate(1442.000000, 125.000000)" sketch:type="MSShapeGroup">
                    <path d="M6,110.990012 C6,108.786389 7.80035233,107 10.0095579,107 L23.9904421,107 C26.2048598,107 28,108.798272 28,110.990012 L28,140.293719 C28,142.497342 26.1996477,144.283732 23.9904421,144.283732 L10.0095579,144.283732 C7.79514022,144.283732 6,142.48546 6,140.293719 L6,110.990012 Z M14,110 C14,109.447715 14.4509752,109 14.990778,109 L19.009222,109 C19.5564136,109 20,109.443865 20,110 C20,110.552285 19.5490248,111 19.009222,111 L14.990778,111 C14.4435864,111 14,110.556135 14,110 Z M8.25,113.283732 L25.75,113.283732 L25.75,137.283732 L8.25,137.283732 L8.25,113.283732 Z M17,142.283732 C17.8284271,142.283732 18.5,141.612159 18.5,140.783732 C18.5,139.955305 17.8284271,139.283732 17,139.283732 C16.1715729,139.283732 15.5,139.955305 15.5,140.783732 C15.5,141.612159 16.1715729,142.283732 17,142.283732 Z" id="Rectangle-876"></path>
                </g>
            </g>
        </g>
    </g>
</svg>