<?xml version="1.0" encoding="UTF-8" standalone="no"?>
<svg width="32px" height="32px" viewBox="0 0 32 32" version="1.1" xmlns="http://www.w3.org/2000/svg" xmlns:xlink="http://www.w3.org/1999/xlink" xmlns:sketch="http://www.bohemiancoding.com/sketch/ns">
    <!-- Generator: Sketch 3.3 (11970) - http://www.bohemiancoding.com/sketch -->
    <title>Group</title>
    <desc>Created with Sketch.</desc>
    <defs></defs>
    <g id="Main-full-menu+hovers" stroke="none" stroke-width="1" fill="none" fill-rule="evenodd" sketch:type="MSPage">
        <g sketch:type="MSArtboardGroup" transform="translate(-930.000000, -3089.000000)" id="Mask-+-Bitmap-Copy" fill="#FFFFFF">
            <g sketch:type="MSLayerGroup" transform="translate(-512.500000, 2908.283732)">
                <g id="Rectangle-876-+-Group-+-Group" transform="translate(1442.000000, 125.000000)" sketch:type="MSShapeGroup">
                    <g id="Group" transform="translate(1.000000, 56.000000)">
                        <path d="M15.5,31 C24.0604136,31 31,24.0604136 31,15.5 C31,6.93958638 24.0604136,0 15.5,0 C6.93958638,0 0,6.93958638 0,15.5 C0,24.0604136 6.93958638,31 15.5,31 Z M15.5,29 C22.9558441,29 29,22.9558441 29,15.5 C29,8.04415588 22.9558441,2 15.5,2 C8.04415588,2 2,8.04415588 2,15.5 C2,22.9558441 8.04415588,29 15.5,29 Z" id="Oval-149"></path>
                        <path d="M24.444426,22 C22.2471438,24.4549974 19.0539993,26 15.5,26 C11.9460007,26 8.75285618,24.4549974 6.55557397,22 L11.3727979,22 C12.6090371,22.6390692 14.0123686,23 15.5,23 C16.9876314,23 18.3909629,22.6390692 19.6272021,22 L24.444426,22 Z" id="Oval-149-Copy"></path>
                        <path d="M18.1010069,17.8419571 C18.844551,17.0161677 19.1223309,15.9337553 18.9512336,14.9169457 C18.8887511,14.5456199 22.9885957,7.22855744 22.6794565,6.95020719 C22.2715169,6.58289675 15.8035521,11.9968171 15.4664141,12.0001413 C14.5206848,12.0094662 13.581726,12.3997911 12.8989931,13.1580429 C11.6055659,14.5945393 11.7215464,16.8075797 13.1580429,18.1010069 C14.5945393,19.3944341 16.8075797,19.2784536 18.1010069,17.8419571 Z M15.5,17 C16.3284271,17 17,16.3284271 17,15.5 C17,14.6715729 16.3284271,14 15.5,14 C14.6715729,14 14,14.6715729 14,15.5 C14,16.3284271 14.6715729,17 15.5,17 Z" id="Oval-154"></path>
                        <path d="M23.3001662,8.4708289 C24.978383,10.3319297 26,12.7966591 26,15.5 C26,16.0370481 25.9596807,16.5646791 25.881904,17.0800312 L25.881904,17.0800312 C25.0159349,16.2497357 23.9745574,15.6009605 22.8189215,15.1948554 C22.619144,14.2136297 22.2597148,13.2904459 21.76894,12.4536102 C22.2830429,11.1403228 22.851728,9.69947388 23.3001662,8.4708289 L23.3001662,8.4708289 Z M21.2663361,6.72366397 C19.6112916,5.63404397 17.6296903,5 15.5,5 C9.70101013,5 5,9.70101013 5,15.5 C5,15.7620191 5.00959737,16.0217966 5.02845975,16.2790001 L5.02845975,16.2790001 C5.395733,11.6455544 9.27213408,8 14,8 C15.3960085,8 16.7177813,8.31784062 17.8969008,8.88510413 C19.008918,8.15071613 20.2150033,7.35996863 21.2663361,6.72366397 L21.2663361,6.72366397 Z" id="Oval-151"></path>
                    </g>
                </g>
            </g>
        </g>
    </g>
</svg>