<?xml version="1.0" encoding="UTF-8" standalone="no"?>
<svg width="297px" height="258px" viewBox="0 0 297 258" version="1.1" xmlns="http://www.w3.org/2000/svg" xmlns:xlink="http://www.w3.org/1999/xlink" xmlns:sketch="http://www.bohemiancoding.com/sketch/ns">
    <!-- Generator: Sketch 3.3 (11970) - http://www.bohemiancoding.com/sketch -->
    <title>Group</title>
    <desc>Created with Sketch.</desc>
    <defs>
        <path id="path-1" d="M14.1206506,6.27350835 C15.2354375,3.15210506 18.8279368,0.621707741 22.1313513,0.621707741 L74.1469504,0.621707741 C77.4563513,0.621707741 81.0439108,3.15503562 82.1576511,6.27350835 L95.0923064,42.4905432 C97.8796016,50.2949699 93.4155223,56.6217077 85.1415893,56.6217077 L11.1367124,56.6217077 C2.85378787,56.6217077 -1.60062714,50.2930861 1.18599532,42.4905432 L14.1206506,6.27350835 Z"></path>
        <path id="path-3" d="M14.1206506,6.27350835 C15.2354375,3.15210506 18.8279368,0.621707741 22.1313513,0.621707741 L74.1469504,0.621707741 C77.4563513,0.621707741 81.0439108,3.15503562 82.1576511,6.27350835 L95.0923064,42.4905432 C97.8796016,50.2949699 93.4155223,56.6217077 85.1415893,56.6217077 L11.1367124,56.6217077 C2.85378787,56.6217077 -1.60062714,50.2930861 1.18599532,42.4905432 L14.1206506,6.27350835 Z"></path>
        <path id="path-5" d="M14.1206506,6.27350835 C15.2354375,3.15210506 18.8279368,0.621707741 22.1313513,0.621707741 L74.1469504,0.621707741 C77.4563513,0.621707741 81.0439108,3.15503562 82.1576511,6.27350835 L95.0923064,42.4905432 C97.8796016,50.2949699 93.4155223,56.6217077 85.1415893,56.6217077 L11.1367124,56.6217077 C2.85378787,56.6217077 -1.60062714,50.2930861 1.18599532,42.4905432 L14.1206506,6.27350835 Z"></path>
        <path id="path-7" d="M14.1206506,6.27350835 C15.2354375,3.15210506 18.8279368,0.621707741 22.1313513,0.621707741 L74.1469504,0.621707741 C77.4563513,0.621707741 81.0439108,3.15503562 82.1576511,6.27350835 L95.0923064,42.4905432 C97.8796016,50.2949699 93.4155223,56.6217077 85.1415893,56.6217077 L11.1367124,56.6217077 C2.85378787,56.6217077 -1.60062714,50.2930861 1.18599532,42.4905432 L14.1206506,6.27350835 Z"></path>
        <path id="path-9" d="M14.1206506,6.27350835 C15.2354375,3.15210506 18.8279368,0.621707741 22.1313513,0.621707741 L74.1469504,0.621707741 C77.4563513,0.621707741 81.0439108,3.15503562 82.1576511,6.27350835 L95.0923064,42.4905432 C97.8796016,50.2949699 93.4155223,56.6217077 85.1415893,56.6217077 L11.1367124,56.6217077 C2.85378787,56.6217077 -1.60062714,50.2930861 1.18599532,42.4905432 L14.1206506,6.27350835 Z"></path>
        <path id="path-11" d="M14.1206506,6.27350835 C15.2354375,3.15210506 18.8279368,0.621707741 22.1313513,0.621707741 L74.1469504,0.621707741 C77.4563513,0.621707741 81.0439108,3.15503562 82.1576511,6.27350835 L95.0923064,42.4905432 C97.8796016,50.2949699 93.4155223,56.6217077 85.1415893,56.6217077 L11.1367124,56.6217077 C2.85378787,56.6217077 -1.60062714,50.2930861 1.18599532,42.4905432 L14.1206506,6.27350835 Z"></path>
    </defs>
    <g id="Main-full-menu+hovers" stroke="none" stroke-width="1" fill="none" fill-rule="evenodd" sketch:type="MSPage">
        <g id="Group" sketch:type="MSLayerGroup">
            <g transform="translate(0.500000, 77.918662)">
                <g id="Rectangle-225" transform="translate(0.000000, 123.000000)">
                    <mask id="mask-2" sketch:name="Mask" fill="white">
                        <use xlink:href="#path-1"></use>
                    </mask>
                    <use id="Mask" fill="#B5C3CD" sketch:type="MSShapeGroup" xlink:href="#path-1"></use>
                    <rect id="Rectangle-226" fill="#E5E5E5" sketch:type="MSShapeGroup" mask="url(#mask-2)" x="-22" y="-10" width="70" height="75"></rect>
                </g>
                <g id="Rectangle-225-Copy" transform="translate(100.000000, 123.000000)">
                    <mask id="mask-4" sketch:name="Mask" fill="white">
                        <use xlink:href="#path-3"></use>
                    </mask>
                    <use id="Mask" fill="#B5C3CD" sketch:type="MSShapeGroup" xlink:href="#path-3"></use>
                    <rect id="Rectangle-226" fill="#E5E5E5" sketch:type="MSShapeGroup" mask="url(#mask-4)" x="-22" y="-10" width="70" height="75"></rect>
                </g>
                <g id="Rectangle-225-Copy-3" transform="translate(48.000000, 62.000000)">
                    <mask id="mask-6" sketch:name="Mask" fill="white">
                        <use xlink:href="#path-5"></use>
                    </mask>
                    <use id="Mask" fill="#B5C3CD" sketch:type="MSShapeGroup" xlink:href="#path-5"></use>
                    <rect id="Rectangle-226" fill="#E5E5E5" sketch:type="MSShapeGroup" mask="url(#mask-6)" x="-22" y="-10" width="70" height="75"></rect>
                </g>
                <g id="Rectangle-225-Copy-2" transform="translate(200.000000, 123.000000)">
                    <mask id="mask-8" sketch:name="Mask" fill="white">
                        <use xlink:href="#path-7"></use>
                    </mask>
                    <use id="Mask" fill="#FF8E00" sketch:type="MSShapeGroup" xlink:href="#path-7"></use>
                    <rect id="Rectangle-226" fill="#D07400" sketch:type="MSShapeGroup" mask="url(#mask-8)" x="48" y="-9" width="70" height="75"></rect>
                </g>
                <g id="Rectangle-225-Copy-4" transform="translate(148.000000, 61.875000)">
                    <mask id="mask-10" sketch:name="Mask" fill="white">
                        <use xlink:href="#path-9"></use>
                    </mask>
                    <use id="Mask" fill="#FF8E00" sketch:type="MSShapeGroup" xlink:href="#path-9"></use>
                    <rect id="Rectangle-226" fill="#D07400" sketch:type="MSShapeGroup" mask="url(#mask-10)" x="48" y="-9" width="70" height="75"></rect>
                </g>
                <g id="Rectangle-225-Copy-5" transform="translate(100.000000, 0.621708)">
                    <mask id="mask-12" sketch:name="Mask" fill="white">
                        <use xlink:href="#path-11"></use>
                    </mask>
                    <use id="Mask" fill="#FF8E00" sketch:type="MSShapeGroup" xlink:href="#path-11"></use>
                    <rect id="Rectangle-226" fill="#D07400" sketch:type="MSShapeGroup" mask="url(#mask-12)" x="48" y="-9" width="70" height="75"></rect>
                </g>
            </g>
            <path d="M58,58.3019531 C58,52.2430136 60.1213314,39.9791611 60.1213314,39.9791611 C60.2121175,39.4383854 60.7377232,39 61.2933938,39 L60.7066062,39 C61.2631322,39 61.7877467,39.4376458 61.8786686,39.9893782 C61.8786686,39.9893782 64,52.3808484 64,58.5087054 C64,64.6307587 61.8750127,77.0338201 61.8750127,77.0338201 C61.7862456,77.5674265 61.2622768,78 60.7066062,78 L61.2933938,78 C60.7368678,78 60.2122533,77.5582192 60.1231637,77.0125786 C60.1231637,77.0125786 58,64.4929239 58,58.3019531 Z" id="Rectangle-237" fill="#FF8E00" sketch:type="MSShapeGroup"></path>
            <path d="M162,19.3019531 C162,13.2430136 164.121331,0.979161087 164.121331,0.979161087 C164.212118,0.438385351 164.737723,0 165.293394,0 L164.706606,0 C165.263132,0 165.787747,0.437645755 165.878669,0.989378166 C165.878669,0.989378166 168,13.3808484 168,19.5087054 C168,25.6307587 165.875013,38.0338201 165.875013,38.0338201 C165.786246,38.5674265 165.262277,39 164.706606,39 L165.293394,39 C164.736868,39 164.212253,38.5582192 164.123164,38.0125786 C164.123164,38.0125786 162,25.4929239 162,19.3019531 Z" id="Rectangle-237-Copy-2" fill="#FF8E00" sketch:type="MSShapeGroup"></path>
            <path d="M243,93.3019531 C243,87.2430136 245.121331,74.9791611 245.121331,74.9791611 C245.212118,74.4383854 245.737723,74 246.293394,74 L245.706606,74 C246.263132,74 246.787747,74.4376458 246.878669,74.9893782 C246.878669,74.9893782 249,87.3808484 249,93.5087054 C249,99.6307587 246.875013,112.03382 246.875013,112.03382 C246.786246,112.567427 246.262277,113 245.706606,113 L246.293394,113 C245.736868,113 245.212253,112.558219 245.123164,112.012579 C245.123164,112.012579 243,99.4929239 243,93.3019531 Z" id="Rectangle-237-Copy-4" fill="#FF8E00" sketch:type="MSShapeGroup"></path>
            <path d="M57.77841,58.1392777 C57.77841,52.0803382 59.8997413,39.8164857 59.8997413,39.8164857 C59.9905275,39.27571 60.5161332,38.8373246 61.0718038,38.8373246 L60.4850162,38.8373246 C61.0415422,38.8373246 61.5661567,39.2749704 61.6570786,39.8267028 C61.6570786,39.8267028 63.77841,52.218173 63.77841,58.34603 C63.77841,64.4680834 61.6534227,76.8711447 61.6534227,76.8711447 C61.5646556,77.4047511 61.0406868,77.8373246 60.4850162,77.8373246 L61.0718038,77.8373246 C60.5152778,77.8373246 59.9906632,77.3955438 59.9015737,76.8499032 C59.9015737,76.8499032 57.77841,64.3302485 57.77841,58.1392777 Z" id="Rectangle-237-Copy" fill="#FF8E00" sketch:type="MSShapeGroup" transform="translate(60.778410, 58.337325) rotate(-270.000000) translate(-60.778410, -58.337325) "></path>
            <path d="M161.77841,19.1392777 C161.77841,13.0803382 163.899741,0.816485695 163.899741,0.816485695 C163.990528,0.275709959 164.516133,-0.162675392 165.071804,-0.162675392 L164.485016,-0.162675392 C165.041542,-0.162675392 165.566157,0.274970363 165.657079,0.826702774 C165.657079,0.826702774 167.77841,13.218173 167.77841,19.34603 C167.77841,25.4680834 165.653423,37.8711447 165.653423,37.8711447 C165.564656,38.4047511 165.040687,38.8373246 164.485016,38.8373246 L165.071804,38.8373246 C164.515278,38.8373246 163.990663,38.3955438 163.901574,37.8499032 C163.901574,37.8499032 161.77841,25.3302485 161.77841,19.1392777 Z" id="Rectangle-237-Copy-3" fill="#FF8E00" sketch:type="MSShapeGroup" transform="translate(164.778410, 19.337325) rotate(-270.000000) translate(-164.778410, -19.337325) "></path>
            <path d="M242.77841,93.1392777 C242.77841,87.0803382 244.899741,74.8164857 244.899741,74.8164857 C244.990528,74.27571 245.516133,73.8373246 246.071804,73.8373246 L245.485016,73.8373246 C246.041542,73.8373246 246.566157,74.2749704 246.657079,74.8267028 C246.657079,74.8267028 248.77841,87.218173 248.77841,93.34603 C248.77841,99.4680834 246.653423,111.871145 246.653423,111.871145 C246.564656,112.404751 246.040687,112.837325 245.485016,112.837325 L246.071804,112.837325 C245.515278,112.837325 244.990663,112.395544 244.901574,111.849903 C244.901574,111.849903 242.77841,99.3302485 242.77841,93.1392777 Z" id="Rectangle-237-Copy-5" fill="#FF8E00" sketch:type="MSShapeGroup" transform="translate(245.778410, 93.337325) rotate(-270.000000) translate(-245.778410, -93.337325) "></path>
        </g>
    </g>
</svg>