<?xml version="1.0" encoding="UTF-8" standalone="no"?>
<svg width="561px" height="306px" viewBox="0 0 561 306" version="1.1" xmlns="http://www.w3.org/2000/svg" xmlns:xlink="http://www.w3.org/1999/xlink" xmlns:sketch="http://www.bohemiancoding.com/sketch/ns">
    <!-- Generator: Sketch 3.3 (11970) - http://www.bohemiancoding.com/sketch -->
    <title>Group + Path 79 + Oval 35</title>
    <desc>Created with Sketch.</desc>
    <defs></defs>
    <g id="Main--latest-simple" stroke="none" stroke-width="1" fill="none" fill-rule="evenodd" sketch:type="MSPage">
        <g id="Main-simple" sketch:type="MSArtboardGroup" transform="translate(-275.000000, -1884.000000)">
            <g id="Group-+-Path-79-+-Oval-35-Copy" sketch:type="MSLayerGroup" transform="translate(275.000000, 1884.000000)">
                <g id="Group-+-Path-79-+-Oval-35" sketch:type="MSShapeGroup">
                    <g id="Group">
                        <path d="M154,202 L281.533003,202 L281.533003,236.251497 L154,236.251497 L154,202 Z M262.869637,242.479042 L204.391089,242.479042 L204.391089,280.467066 L262.869637,280.467066 L262.869637,242.479042 Z M293.819719,280.467066 L176.401418,280.467066 C174.680532,280.467066 173.285479,281.864649 173.285479,283.580838 L173.285479,286.694611 L293.819719,286.694611 L293.819719,280.467066 Z M252.915842,294.790419 L531,294.790419 L531,300.39521 C531,303.49065 528.489547,306 525.398064,306 L258.517778,306 C255.423914,306 252.915842,303.484351 252.915842,300.39521 L252.915842,294.790419 Z" id="Rectangle-113" fill="#E8EBF0"></path>
                        <path d="M263.35474,236 L205,236 L205,242.25 L263.35474,242.25 L263.35474,236 Z M376.33945,294.75 L408,294.75 L408,297.875 C408,299.60089 406.598734,301 404.877617,301 L379.461832,301 C377.737388,301 376.33945,299.597378 376.33945,297.875 L376.33945,294.75 Z" id="Rectangle-113-Copy" fill="#D8DBE1"></path>
                        <path d="M282.764268,201.262729 L154.461538,201.262729 L154.461538,201.262729 L154.461538,273.319282 C154.461538,278.842954 149.992208,283.320774 144.469317,283.320774 L68.5111663,283.320774 L68.5111663,296.999666 C68.5111663,301.418129 64.9241698,305 60.5179809,305 L7.99318535,305 C3.57867098,305 0,301.422249 0,296.999666 L0,195.597075 C0,191.178613 3.58699647,187.596741 7.99318535,187.596741 L26.7816377,187.596741 L26.7816377,127.466868 C26.7816377,121.943197 31.2509677,117.465377 36.7738595,117.465377 L64.7741935,117.465377 L64.7741935,15.0040239 C64.7741935,6.7175303 71.4850689,0 79.7699965,0 L388.597249,0 C396.879202,0 403.593052,6.72511817 403.593052,15.0040239 L403.593052,148.462322 L491.99217,148.462322 C497.519342,148.462322 502,152.931848 502,158.453257 L502,293.818737 L282.764268,293.818737 L282.764268,201.262729 Z" id="Rectangle-104-Copy-3" fill="#474E5D"></path>
                        <path d="M69.127086,266.488532 L140.725289,266.488532 L140.725289,135.961009 L41.732991,135.961009 L41.732991,188.172018 L59.1320978,188.172018 C64.6521774,188.172018 69.127086,192.651538 69.127086,198.1625 L69.127086,266.488532 Z M283.299101,186.307339 L155.044929,186.307339 L155.044929,186.307339 L155.044929,127.943364 C155.044929,122.417652 150.567,117.93578 145.043195,117.93578 L80.3337612,117.93578 L80.3337612,16 L389.139923,16 L389.139923,149.013761 L293.303144,149.013761 C287.776069,149.013761 283.299101,153.48958 283.299101,159.010782 L283.299101,186.307339 L283.299101,186.307339 Z M295.750963,159.580275 L490,159.580275 L490,284.513761 L295.750963,284.513761 L295.750963,159.580275 Z M5,208.683486 L64.1463415,208.683486 L64.1463415,287 L5,287 L5,208.683486 Z" id="Rectangle-111" fill="#FFFFFF"></path>
                        <path d="M305.904762,16 L284.142857,16 L284.142857,16 L284.142857,155.531239 C285.555283,151.725507 289.219445,149.013761 293.529906,149.013761 L305.904762,149.013761 L305.904762,16 Z M327.666667,16 L349.428571,16 L349.428571,16 L349.428571,149.013761 L327.666667,149.013761 L327.666667,16 Z M327.666667,159.580275 L349.428571,159.580275 L349.428571,284.513761 L327.666667,284.513761 L327.666667,159.580275 Z M305.904762,159.580275 L295.956463,159.580275 L295.956463,284.513761 L305.904762,284.513761 L305.904762,159.580275 Z M480,159.580275 L458.238095,159.580275 L458.238095,284.513761 L480,284.513761 L480,159.580275 L480,159.580275 Z M131.809524,135.961009 L110.047619,135.961009 L110.047619,135.961009 L110.047619,266.488532 L131.809524,266.488532 L131.809524,135.961009 L131.809524,135.961009 Z M131.809524,16 L110.047619,16 L110.047619,16 L110.047619,117.93578 L131.809524,117.93578 L131.809524,16 L131.809524,16 Z M153.571429,16 L175.333333,16 L175.333333,16 L175.333333,186.307339 L155.436735,186.307339 L155.436735,186.307339 L155.436735,127.943364 C155.436735,125.772508 154.745597,123.762762 153.571429,122.122591 L153.571429,16 L153.571429,16 Z M262.380952,16 L240.619048,16 L240.619048,16 L240.619048,186.307339 L262.380952,186.307339 L262.380952,16 L262.380952,16 Z M436.47619,159.580275 L414.714286,159.580275 L414.714286,159.580275 L414.714286,284.513761 L436.47619,284.513761 L436.47619,159.580275 L436.47619,159.580275 Z M88.2857143,135.961009 L64.6585034,135.961009 L64.6585034,135.961009 L64.6585034,188.762966 C67.5765059,189.955396 69.6326531,192.823558 69.6326531,196.177225 L69.6326531,266.488532 L69.6326531,266.488532 L88.2857143,266.488532 L88.2857143,135.961009 Z M88.2857143,16 L80.8244898,16 L80.8244898,117.93578 L88.2857143,117.93578 L88.2857143,16 L88.2857143,16 Z M218.857143,16 L197.095238,16 L197.095238,16 L197.095238,186.307339 L218.857143,186.307339 L218.857143,16 L218.857143,16 Z M392.952381,159.580275 L371.190476,159.580275 L371.190476,159.580275 L371.190476,284.513761 L392.952381,284.513761 L392.952381,159.580275 L392.952381,159.580275 Z M42.8965986,208.683486 L23,208.683486 L23,208.683486 L23,287 L42.8965986,287 L42.8965986,208.683486 L42.8965986,208.683486 Z M42.8965986,135.961009 L42.2748299,135.961009 L42.2748299,188.172018 L42.8965986,188.172018 L42.8965986,135.961009 L42.8965986,135.961009 Z M371.190476,16 L389.221769,16 L389.221769,149.013761 L371.190476,149.013761 L371.190476,16 L371.190476,16 Z" id="Rectangle-111-Copy" fill="#F6F6F6"></path>
                    </g>
                    <path d="M4.3359375,257.511719 L19.421875,237.976562 L36.7304688,256.769531 L98.5546875,178.671875 L121.3125,202.652344 L186,118.171875 L209.984375,138.929688 L270.324219,50.7109375 L306.910156,103.414062 L323.476562,82.5898438 L415.441406,206.359375 L541.761719,42.453125" id="Path-79" stroke="#0099E6" stroke-width="3"></path>
                    <circle id="Oval-35" stroke="#0099E6" stroke-width="3" cx="548" cy="35" r="11"></circle>
                </g>
            </g>
        </g>
    </g>
</svg>