<?xml version="1.0" encoding="UTF-8" standalone="no"?>
<svg width="28px" height="23px" viewBox="0 0 28 23" version="1.1" xmlns="http://www.w3.org/2000/svg" xmlns:xlink="http://www.w3.org/1999/xlink" xmlns:sketch="http://www.bohemiancoding.com/sketch/ns">
    <!-- Generator: Sketch 3.3 (11970) - http://www.bohemiancoding.com/sketch -->
    <title>Rectangle 1 Copy 2 + Rectangle 1 Copy 5 + Rectangle 1 Copy 7</title>
    <desc>Created with Sketch.</desc>
    <defs></defs>
    <g id="Main-full-menu+hovers" stroke="none" stroke-width="1" fill="none" fill-rule="evenodd" sketch:type="MSPage">
        <g id="iPhone-5-320" sketch:type="MSArtboardGroup" transform="translate(-271.000000, -21.000000)" fill="#FF8E00">
            <g id="Group" sketch:type="MSLayerGroup" transform="translate(-6.000000, -21.000000)">
                <g id="Rectangle-1-Copy-2-+-Rectangle-1-Copy-5-+-Rectangle-1-Copy-7" transform="translate(277.000000, 42.000000)" sketch:type="MSShapeGroup">
                    <path d="M0.346801342,2.17990815 C0.346801342,1.00170069 1.30264876,0.0465748204 2.48950968,0.0465748204 L25.5107597,0.0465748204 C26.6941448,0.0465748204 27.653468,0.999824332 27.653468,2.18384289 L27.653468,0.469306754 C27.653468,1.64968731 27.653468,3.5597047 27.653468,4.31324149 L27.653468,2.60657482 C27.653468,3.54914079 26.6976206,4.31324149 25.5107597,4.31324149 L2.48950968,4.31324149 C1.30612454,4.31324149 0.346801342,3.36632987 0.346801342,2.17990815 L0.346801342,2.17990815 Z" id="Rectangle-1-Copy-2"></path>
                    <path d="M0.346801342,11.5665748 C0.346801342,10.3883674 1.30264876,9.43324149 2.48950968,9.43324149 L25.5107597,9.43324149 C26.6941448,9.43324149 27.653468,10.386491 27.653468,11.5705096 L27.653468,9.85597342 C27.653468,11.036354 27.653468,12.9463714 27.653468,13.6999082 L27.653468,11.9932415 C27.653468,12.9358075 26.6976206,13.6999082 25.5107597,13.6999082 L2.48950968,13.6999082 C1.30612454,13.6999082 0.346801342,12.7529965 0.346801342,11.5665748 L0.346801342,11.5665748 Z" id="Rectangle-1-Copy-5"></path>
                    <path d="M0.346531991,20.4446548 C0.346531991,19.2664474 1.30237941,18.3113215 2.48924032,18.3113215 L25.5104903,18.3113215 C26.6938755,18.3113215 27.6531987,19.264571 27.6531987,20.4485896 L27.6531987,18.7340534 C27.6531987,19.914434 27.6531987,21.8244514 27.6531987,22.5779882 L27.6531987,20.8713215 C27.6531987,21.8138875 26.6973512,22.5779882 25.5104903,22.5779882 L2.48924032,22.5779882 C1.30585519,22.5779882 0.346531991,21.6310765 0.346531991,20.4446548 L0.346531991,20.4446548 Z" id="Rectangle-1-Copy-7"></path>
                </g>
            </g>
        </g>
    </g>
</svg>