<?xml version="1.0" encoding="UTF-8" standalone="no"?>
<svg width="367px" height="213px" viewBox="0 0 367 213" version="1.1" xmlns="http://www.w3.org/2000/svg" xmlns:xlink="http://www.w3.org/1999/xlink" xmlns:sketch="http://www.bohemiancoding.com/sketch/ns">
    <!-- Generator: Sketch 3.3 (11970) - http://www.bohemiancoding.com/sketch -->
    <title>isvg_test</title>
    <desc>Created with Sketch.</desc>
    <defs></defs>
    <g id="Page-1" stroke="none" stroke-width="1" fill="none" fill-rule="evenodd" sketch:type="MSPage">
        <g id="isvg_test" sketch:type="MSLayerGroup" transform="translate(0.000000, -1.000000)">
            <g id="Main-full-menu+hovers">
                <g id="Main-full-simple">
                    <g id="Group" transform="translate(0.000000, 0.875000)">
                        <rect id="Mask" fill="#FFFFFF" sketch:type="MSShapeGroup" x="16.2972105" y="44.0963706" width="246.405579" height="125.807259"></rect>
                        <g transform="translate(138.500000, 105.500000) rotate(21.000000) translate(-138.500000, -105.500000) translate(16.000000, 40.000000)">
                            <ellipse id="Oval-24-Copy-3" fill="#0099E6" sketch:type="MSShapeGroup" cx="49.1221106" cy="65.2672975" rx="15.5753033" ry="17.0547712"></ellipse>
                            <path d="M122.206226,107.248273 C143.380386,107.248273 160.545434,88.45275 160.545434,65.2672975 C160.545434,42.0818451 143.380386,23.2863222 122.206226,23.2863222 C101.032066,23.2863222 83.867018,42.0818451 83.867018,65.2672975 C83.867018,88.45275 101.032066,107.248273 122.206226,107.248273 L122.206226,107.248273 Z" id="Oval-24-Copy-4" fill="#0099E6" sketch:type="MSShapeGroup"></path>
                            <ellipse id="Oval-24-Copy-5" fill="#0099E6" sketch:type="MSShapeGroup" cx="195.290342" cy="65.2672975" rx="15.5753033" ry="17.0547712"></ellipse>
                            <path d="M217.455197,12.7910784 L26.9572558,12.7910784 C26.9572558,22.2101685 19.983955,29.8458496 11.3819524,29.8458496 L11.3819524,100.032793 C19.983955,100.032793 26.9572558,107.668474 26.9572558,117.087564 C26.9572558,117.312741 26.9532704,117.53133 26.9453727,117.743517 L26.9453727,117.743517 L217.467017,117.743517 C217.459161,117.530742 217.455197,117.312143 217.455197,117.087564 C217.455197,107.668474 224.428498,100.032793 233.0305,100.032793 L233.0305,29.8458496 C224.428498,29.8458496 217.455197,22.2101685 217.455197,12.7910784 L217.455197,12.7910784 Z M3.3606751e-14,0.32797637 L244.412453,0.32797637 L244.412453,130.206619 L3.3606751e-14,130.206619 L3.3606751e-14,0.32797637 L3.3606751e-14,0.32797637 Z" id="Rectangle-140-Copy-4" fill="#0099E6" sketch:type="MSShapeGroup"></path>
                            <g id="$-copy" transform="translate(103.000000, 33.000000)" font-size="53.9144023" font-family="Museo Sans Cyrl" fill="#FFFFFF" sketch:type="MSTextLayer" font-weight="bold">
                                <text id="$">
                                    <tspan x="0.036622" y="51.2863222" fill="#000000">$</tspan>
                                </text>
                            </g>
                        </g>
                        <rect id="Rectangle-140" fill="#FFFFFF" sketch:type="MSShapeGroup" x="57" y="77" width="258" height="132"></rect>
                        <g transform="translate(57.000000, 74.000000)" sketch:type="MSShapeGroup">
                            <ellipse id="Oval-24-Copy-3" fill="#0099E6" cx="51.6974885" cy="67.7209638" rx="16.3918866" ry="17.6959302"></ellipse>
                            <path d="M128.613264,111.280177 C150.897545,111.280177 168.962523,91.7780528 168.962523,67.7209638 C168.962523,43.6638748 150.897545,24.1617509 128.613264,24.1617509 C106.328983,24.1617509 88.2640047,43.6638748 88.2640047,67.7209638 C88.2640047,91.7780528 106.328983,111.280177 128.613264,111.280177 L128.613264,111.280177 Z" id="Oval-24-Copy-4" fill="#0099E6"></path>
                            <ellipse id="Oval-24-Copy-5" fill="#0099E6" cx="205.529039" cy="67.7209638" rx="16.3918866" ry="17.6959302"></ellipse>
                            <path d="M228.855955,13.2719477 L28.3705729,13.2719477 C28.3705729,23.0451401 21.0316753,30.9678779 11.9786864,30.9678779 L11.9786864,103.793437 C21.0316753,103.793437 28.3705729,111.716175 28.3705729,121.489367 C28.3705729,121.72301 28.3663786,121.949816 28.3580668,122.16998 L28.3580668,122.16998 L228.868395,122.16998 C228.860127,121.949206 228.855955,121.722389 228.855955,121.489367 C228.855955,111.716175 236.194853,103.793437 245.247842,103.793437 L245.247842,30.9678779 C236.194853,30.9678779 228.855955,23.0451401 228.855955,13.2719477 L228.855955,13.2719477 Z M2.27373675e-13,0.340306351 L257.226528,0.340306351 L257.226528,135.101621 L2.27373675e-13,135.101621 L2.27373675e-13,0.340306351 L2.27373675e-13,0.340306351 Z" id="Rectangle-140-Copy-4" fill="#0099E6"></path>
                            <g id="$" transform="translate(110.000000, 43.000000)" fill="#FFFFFF">
                                <path d="M0.820217813,41.9472459 C3.76884539,45.0092822 8.24849113,46.8805267 12.3879106,47.5042748 L12.3879106,52.6643731 L18.5686877,52.6643731 L18.5686877,47.5042748 C25.8268479,46.3701873 29.909563,41.1533846 29.909563,35.1427207 C29.909563,22.6110535 11.4806406,22.9512798 11.4806406,18.1314078 C11.4806406,15.8632327 13.7488157,14.9559627 15.7901732,14.9559627 C18.9656183,14.9559627 22.4812896,16.6003896 24.7494647,18.5283384 L28.9455886,10.4196126 C25.996961,7.81121126 22.3111765,6.39360185 18.5686877,5.99667121 L18.5686877,0.836572951 L12.3879106,0.836572951 L12.3879106,6.16678434 C6.09372483,7.35757625 1.55737471,11.8939264 1.55737471,18.2448165 C1.55737471,30.4362575 19.9862971,30.8331881 19.9862971,35.3695382 C19.9862971,37.8078264 17.7748264,38.6016877 15.7334688,38.6016877 C12.2745019,38.6016877 8.41860426,36.5603301 6.03702045,34.4055638 L0.820217813,41.9472459 Z"></path>
                            </g>
                        </g>
                        <rect id="Rectangle-147-Copy" fill="#FF8E00" sketch:type="MSShapeGroup" x="259" y="194" width="96" height="19" rx="2"></rect>
                        <rect id="Rectangle-147-Copy-2" fill="#FF8E00" sketch:type="MSShapeGroup" x="271" y="175" width="96" height="19" rx="2"></rect>
                        <rect id="Rectangle-147-Copy-3" fill="#FF8E00" sketch:type="MSShapeGroup" x="253" y="156" width="96" height="19" rx="2"></rect>
                        <ellipse id="Oval-27" fill="#FF8E00" sketch:type="MSShapeGroup" cx="307" cy="107.5" rx="48" ry="48.5"></ellipse>
                        <circle id="Oval-27-Copy" fill="#D07400" sketch:type="MSShapeGroup" cx="307.5" cy="107.5" r="38.5"></circle>
                        <g id="€" transform="translate(279.000000, 88.000000)" fill="#FFBC00" sketch:type="MSShapeGroup">
                            <path d="M0.536582252,28.9934618 L4.90993174,28.9934618 C7.62850034,37.7401608 15.1341136,43.7091918 25.2991962,43.7091918 C27.8995662,43.7091918 30.8545321,43.2363973 32.8639089,42.5272055 L31.0909293,33.0713147 C29.2588505,33.6032085 27.3676724,33.9578044 25.4764942,33.9578044 C21.8123365,33.9578044 18.4436754,32.1257256 16.5524973,28.9934618 L25.7128915,28.9934618 L26.8948778,23.3199273 L14.6613191,23.3199273 C14.4840212,22.3743382 14.4249218,21.4287491 14.5431205,20.4831601 L27.485871,20.4831601 L28.6678573,14.8096256 L15.9024048,14.8096256 C17.6753843,11.5000638 20.9258468,9.60888567 25.0036997,9.60888567 C26.5993812,9.60888567 28.4314601,9.78618362 29.6725457,10.1998788 L32.2138164,0.862186695 C29.908943,0.389392156 27.6040696,0.0347962513 25.2991962,0.0347962513 C15.5478089,0.0347962513 7.51030171,6.12202594 4.79173311,14.8096256 L0.536582252,14.8096256 L0.536582252,20.4831601 L3.78704471,20.4831601 C3.66884607,21.5469478 3.72794539,22.4334375 3.84614403,23.3199273 L0.536582252,23.3199273 L0.536582252,28.9934618 Z"></path>
                        </g>
                        <path d="M337.852661,114.602661 C337.852661,87.8168502 316.362329,66.1026606 289.852661,66.1026606 C263.342993,66.1026606 241.852661,87.8168502 241.852661,114.602661" id="Oval-27" opacity="0.362290112" fill="#FFE497" sketch:type="MSShapeGroup" transform="translate(289.852661, 90.352661) rotate(-45.000000) translate(-289.852661, -90.352661) "></path>
                        <path d="M264.793814,195 L266.690722,195 L266.690722,210 L264.793814,210 L264.793814,195 L264.793814,195 Z M279.020619,195 L280.917526,195 L280.917526,210 L279.020619,210 L279.020619,195 L279.020619,195 Z M267.639175,195 L269.536082,195 L269.536082,210 L267.639175,210 L267.639175,195 L267.639175,195 Z M282.814433,195 L284.71134,195 L284.71134,210 L282.814433,210 L282.814433,195 L282.814433,195 Z M294.195876,195 L296.092784,195 L296.092784,210 L294.195876,210 L294.195876,195 L294.195876,195 Z M305.57732,195 L307.474227,195 L307.474227,210 L305.57732,210 L305.57732,195 L305.57732,195 Z M316.958763,195 L318.85567,195 L318.85567,210 L316.958763,210 L316.958763,195 L316.958763,195 Z M335.927835,195 L337.824742,195 L337.824742,210 L335.927835,210 L335.927835,195 L335.927835,195 Z M271.43299,195 L273.329897,195 L273.329897,210 L271.43299,210 L271.43299,195 L271.43299,195 Z M286.608247,195 L288.505155,195 L288.505155,210 L286.608247,210 L286.608247,195 L286.608247,195 Z M297.989691,195 L299.886598,195 L299.886598,210 L297.989691,210 L297.989691,195 L297.989691,195 Z M309.371134,195 L311.268041,195 L311.268041,210 L309.371134,210 L309.371134,195 L309.371134,195 Z M328.340206,195 L330.237113,195 L330.237113,210 L328.340206,210 L328.340206,195 L328.340206,195 Z M320.752577,195 L322.649485,195 L322.649485,210 L320.752577,210 L320.752577,195 L320.752577,195 Z M339.721649,195 L341.618557,195 L341.618557,210 L339.721649,210 L339.721649,195 L339.721649,195 Z M347.309278,195 L349.206186,195 L349.206186,210 L347.309278,210 L347.309278,195 L347.309278,195 Z M351.103093,195 L353,195 L353,210 L351.103093,210 L351.103093,195 L351.103093,195 Z M261,195 L262.896907,195 L262.896907,210 L261,210 L261,195 L261,195 Z M275.226804,195 L277.123711,195 L277.123711,210 L275.226804,210 L275.226804,195 L275.226804,195 Z M290.402062,195 L292.298969,195 L292.298969,210 L290.402062,210 L290.402062,195 L290.402062,195 Z M301.783505,195 L303.680412,195 L303.680412,210 L301.783505,210 L301.783505,195 L301.783505,195 Z M313.164948,195 L315.061856,195 L315.061856,210 L313.164948,210 L313.164948,195 L313.164948,195 Z M332.134021,195 L334.030928,195 L334.030928,210 L332.134021,210 L332.134021,195 L332.134021,195 Z M324.546392,195 L326.443299,195 L326.443299,210 L324.546392,210 L324.546392,195 L324.546392,195 Z M343.515464,195 L345.412371,195 L345.412371,210 L343.515464,210 L343.515464,195 L343.515464,195 Z" id="Rectangle-148-Copy-26" fill="#D07400" sketch:type="MSShapeGroup"></path>
                        <path d="M276.793814,177 L278.690722,177 L278.690722,192 L276.793814,192 L276.793814,177 L276.793814,177 Z M291.020619,177 L292.917526,177 L292.917526,192 L291.020619,192 L291.020619,177 L291.020619,177 Z M279.639175,177 L281.536082,177 L281.536082,192 L279.639175,192 L279.639175,177 L279.639175,177 Z M294.814433,177 L296.71134,177 L296.71134,192 L294.814433,192 L294.814433,177 L294.814433,177 Z M306.195876,177 L308.092784,177 L308.092784,192 L306.195876,192 L306.195876,177 L306.195876,177 Z M317.57732,177 L319.474227,177 L319.474227,192 L317.57732,192 L317.57732,177 L317.57732,177 Z M328.958763,177 L330.85567,177 L330.85567,192 L328.958763,192 L328.958763,177 L328.958763,177 Z M347.927835,177 L349.824742,177 L349.824742,192 L347.927835,192 L347.927835,177 L347.927835,177 Z M283.43299,177 L285.329897,177 L285.329897,192 L283.43299,192 L283.43299,177 L283.43299,177 Z M298.608247,177 L300.505155,177 L300.505155,192 L298.608247,192 L298.608247,177 L298.608247,177 Z M309.989691,177 L311.886598,177 L311.886598,192 L309.989691,192 L309.989691,177 L309.989691,177 Z M321.371134,177 L323.268041,177 L323.268041,192 L321.371134,192 L321.371134,177 L321.371134,177 Z M340.340206,177 L342.237113,177 L342.237113,192 L340.340206,192 L340.340206,177 L340.340206,177 Z M332.752577,177 L334.649485,177 L334.649485,192 L332.752577,192 L332.752577,177 L332.752577,177 Z M351.721649,177 L353.618557,177 L353.618557,192 L351.721649,192 L351.721649,177 L351.721649,177 Z M359.309278,177 L361.206186,177 L361.206186,192 L359.309278,192 L359.309278,177 L359.309278,177 Z M363.103093,177 L365,177 L365,192 L363.103093,192 L363.103093,177 L363.103093,177 Z M273,177 L274.896907,177 L274.896907,192 L273,192 L273,177 L273,177 Z M287.226804,177 L289.123711,177 L289.123711,192 L287.226804,192 L287.226804,177 L287.226804,177 Z M302.402062,177 L304.298969,177 L304.298969,192 L302.402062,192 L302.402062,177 L302.402062,177 Z M313.783505,177 L315.680412,177 L315.680412,192 L313.783505,192 L313.783505,177 L313.783505,177 Z M325.164948,177 L327.061856,177 L327.061856,192 L325.164948,192 L325.164948,177 L325.164948,177 Z M344.134021,177 L346.030928,177 L346.030928,192 L344.134021,192 L344.134021,177 L344.134021,177 Z M336.546392,177 L338.443299,177 L338.443299,192 L336.546392,192 L336.546392,177 L336.546392,177 Z M355.515464,177 L357.412371,177 L357.412371,192 L355.515464,192 L355.515464,177 L355.515464,177 Z" id="Rectangle-148-Copy-27" fill="#D07400" sketch:type="MSShapeGroup"></path>
                        <path d="M258.793814,158 L260.690722,158 L260.690722,173 L258.793814,173 L258.793814,158 L258.793814,158 Z M273.020619,158 L274.917526,158 L274.917526,173 L273.020619,173 L273.020619,158 L273.020619,158 Z M261.639175,158 L263.536082,158 L263.536082,173 L261.639175,173 L261.639175,158 L261.639175,158 Z M276.814433,158 L278.71134,158 L278.71134,173 L276.814433,173 L276.814433,158 L276.814433,158 Z M288.195876,158 L290.092784,158 L290.092784,173 L288.195876,173 L288.195876,158 L288.195876,158 Z M299.57732,158 L301.474227,158 L301.474227,173 L299.57732,173 L299.57732,158 L299.57732,158 Z M310.958763,158 L312.85567,158 L312.85567,173 L310.958763,173 L310.958763,158 L310.958763,158 Z M329.927835,158 L331.824742,158 L331.824742,173 L329.927835,173 L329.927835,158 L329.927835,158 Z M265.43299,158 L267.329897,158 L267.329897,173 L265.43299,173 L265.43299,158 L265.43299,158 Z M280.608247,158 L282.505155,158 L282.505155,173 L280.608247,173 L280.608247,158 L280.608247,158 Z M291.989691,158 L293.886598,158 L293.886598,173 L291.989691,173 L291.989691,158 L291.989691,158 Z M303.371134,158 L305.268041,158 L305.268041,173 L303.371134,173 L303.371134,158 L303.371134,158 Z M322.340206,158 L324.237113,158 L324.237113,173 L322.340206,173 L322.340206,158 L322.340206,158 Z M314.752577,158 L316.649485,158 L316.649485,173 L314.752577,173 L314.752577,158 L314.752577,158 Z M333.721649,158 L335.618557,158 L335.618557,173 L333.721649,173 L333.721649,158 L333.721649,158 Z M341.309278,158 L343.206186,158 L343.206186,173 L341.309278,173 L341.309278,158 L341.309278,158 Z M345.103093,158 L347,158 L347,173 L345.103093,173 L345.103093,158 L345.103093,158 Z M255,158 L256.896907,158 L256.896907,173 L255,173 L255,158 L255,158 Z M269.226804,158 L271.123711,158 L271.123711,173 L269.226804,173 L269.226804,158 L269.226804,158 Z M284.402062,158 L286.298969,158 L286.298969,173 L284.402062,173 L284.402062,158 L284.402062,158 Z M295.783505,158 L297.680412,158 L297.680412,173 L295.783505,173 L295.783505,158 L295.783505,158 Z M307.164948,158 L309.061856,158 L309.061856,173 L307.164948,173 L307.164948,158 L307.164948,158 Z M326.134021,158 L328.030928,158 L328.030928,173 L326.134021,173 L326.134021,158 L326.134021,158 Z M318.546392,158 L320.443299,158 L320.443299,173 L318.546392,173 L318.546392,158 L318.546392,158 Z M337.515464,158 L339.412371,158 L339.412371,173 L337.515464,173 L337.515464,158 L337.515464,158 Z" id="Rectangle-148-Copy-28" fill="#D07400" sketch:type="MSShapeGroup"></path>
                    </g>
                </g>
            </g>
        </g>
    </g>
</svg>